<svg width="25" height="25" viewBox="0 0 25 25" fill="none" xmlns="http://www.w3.org/2000/svg">
<path d="M16.2526 11.1569L12.3026 7.20692C12.1205 7.01832 12.0197 6.76571 12.022 6.50352C12.0242 6.24132 12.1294 5.99051 12.3148 5.8051C12.5002 5.61969 12.751 5.51452 13.0132 5.51224C13.2754 5.50997 13.528 5.61076 13.7166 5.79292L19.3736 11.4499C19.4668 11.5426 19.5408 11.6527 19.5912 11.7741C19.6417 11.8954 19.6677 12.0255 19.6677 12.1569C19.6677 12.2883 19.6417 12.4184 19.5912 12.5398C19.5408 12.6611 19.4668 12.7713 19.3736 12.8639L13.7166 18.5209C13.6244 18.6164 13.514 18.6926 13.392 18.745C13.27 18.7974 13.1388 18.825 13.006 18.8262C12.8732 18.8273 12.7416 18.802 12.6187 18.7517C12.4958 18.7015 12.3841 18.6272 12.2902 18.5333C12.1963 18.4394 12.1221 18.3278 12.0718 18.2049C12.0215 18.082 11.9962 17.9503 11.9974 17.8175C11.9985 17.6847 12.0261 17.5535 12.0785 17.4315C12.1309 17.3095 12.2071 17.1992 12.3026 17.1069L16.2526 13.1569H6.66663C6.40141 13.1569 6.14706 13.0516 5.95952 12.864C5.77198 12.6765 5.66663 12.4221 5.66663 12.1569C5.66663 11.8917 5.77198 11.6373 5.95952 11.4498C6.14706 11.2623 6.40141 11.1569 6.66663 11.1569H16.2526Z" fill="#E2E8F0"/>
</svg>
