<?xml version="1.0" encoding="UTF-8"?>
<svg id="Camada_2" data-name="Camada 2" xmlns="http://www.w3.org/2000/svg" viewBox="0 0 7.67 13.34">
  <defs>
    <style>
      .cls-1 {
        fill: #fff;
      }
    </style>
  </defs>
  <g id="Camada_1-2" data-name="Camada 1">
    <path class="cls-1" d="M2.41,6.67l4.95,4.95c.1.09.17.2.22.32.05.12.08.25.08.39,0,.13-.02.26-.07.39-.05.12-.12.23-.22.33-.09.09-.21.17-.33.22-.12.05-.25.08-.39.07-.13,0-.26-.03-.39-.08-.12-.05-.23-.13-.32-.22L.29,7.38c-.19-.19-.29-.44-.29-.71s.11-.52.29-.71L5.95.31c.09-.1.2-.17.32-.22C6.4.03,6.53,0,6.66,0c.13,0,.26.02.39.07.12.05.23.12.33.22.09.09.17.21.22.33.05.12.08.25.07.39,0,.13-.03.26-.08.39-.05.12-.13.23-.22.32L2.41,6.67Z"/>
  </g>
</svg>